<svg viewBox="0 0 500 500" version="1.1" id="svg_null"><g id="root" stroke="none" stroke-width="1" fill="none" fill-rule="evenodd"><rect id="background.secondary" fill="#e4dcef" x="0" y="0" width="500" height="500"></rect><circle id="shape.primary" fill="#ee0e51" cx="250" cy="250" r="200"></circle><circle id="shape.secondary" fill="#e4dcef" cx="159.5" cy="425.5" r="28.5"></circle><circle id="shape.secondary" fill="#e4dcef" cx="340.5" cy="425.5" r="28.5"></circle><circle id="shape.secondary" fill="#e4dcef" cx="250" cy="250" r="168"></circle><circle id="shape.secondary" fill="#e4dcef" cx="432.5" cy="277.5" r="28.5"></circle><circle id="shape.secondary" fill="#e4dcef" cx="67.5" cy="277.5" r="28.5"></circle><circle id="shape.secondary" fill="#e4dcef" cx="125" cy="116" r="29"></circle><circle id="shape.secondary" fill="#e4dcef" cx="376" cy="115" r="29"></circle><path d="M250 24l8.92 80.277l-17.84 0l8.92 -80.277zm106.929 26.41l-29.812 75.067l-15.752 -8.375l45.564 -66.693zm81.941 72.576l-60.643 53.352l-10.232 -14.613l70.875 -38.739zm39.13 102.957l-78.592 18.636l-2.174 -17.706l80.766 -0.93zm-13.302 109.335l-78.141 -20.441l6.393 -16.655l71.748 37.096zm-62.15 90.107l-60.344 -53.69l13.257 -11.936l47.087 65.626zm-97.477 51.277l-28.076 -75.734l17.31 -4.316l10.766 80.05zm-110.142 0l10.766 -80.05l17.31 4.316l-28.076 75.734zm-97.477 -51.277l47.087 -65.626l13.257 11.937l-60.344 53.689zm-62.15 -90.107l71.748 -37.096l6.393 16.655l-78.141 20.441zm-13.302 -109.335l80.766 0.93l-2.174 17.706l-78.592 -18.636zm39.13 -102.957l70.875 38.739l-10.232 14.613l-60.643 -53.352zm81.941 -72.577l45.564 66.693l-15.752 8.375l-29.812 -75.068z" id="shape.secondary" fill="#e4dcef"></path><path d="M243.315 102.277l13.37 0l-6.685 -60.166l-6.685 60.166zm17.84 4l-22.31 0l11.155 -100.388l11.154 100.388zm53.122 10.108l11.806 6.277l22.343 -56.262l-34.149 49.985zm13.874 11.907l-19.697 -10.473l56.977 -83.4l-37.28 93.873zm42.764 34.116l7.669 10.952l45.45 -39.986l-53.119 29.034zm6.956 16.907l-12.796 -18.274l88.63 -48.443l-75.834 66.717zm82.153 48.835l-60.532 0.697l1.63 13.27l58.902 -13.967zm-62.328 18.89l-2.719 -22.141l100.999 -1.163l-98.28 23.305zm-3.68 53.945l-4.792 12.482l58.566 15.321l-53.774 -27.803zm-10.127 15.221l7.994 -20.826l89.723 46.389l-97.717 -25.563zm-28.75 46.534l-9.937 8.947l45.227 40.239l-35.29 -49.186zm-15.934 8.965l16.578 -14.928l58.883 82.067l-75.461 -67.14zm-46.584 27.388l-12.974 3.235l21.043 56.761l-8.07 -59.996zm-18.278 0.435l21.646 -5.397l13.463 100.104l-35.109 -94.707zm-53.99 2.8l-12.974 -3.235l-8.069 59.996l21.043 -56.761zm-16.342 -8.197l21.646 5.397l-35.11 94.707l13.464 -100.104zm-49.213 -22.444l-9.936 -8.947l-35.291 49.186l45.227 -40.24zm-10.581 -14.91l16.578 14.928l-75.461 67.139l58.883 -82.067zm-33.441 -43.31l-4.792 -12.482l-53.774 27.803l58.566 -15.32zm-2.66 -18.087l7.995 20.826l-97.717 25.563l89.723 -46.39zm-9.237 -53.262l1.63 -13.271l-60.533 -0.697l58.903 13.968zm6.144 -17.22l-2.719 22.143l-98.28 -23.305l100.999 1.163zm16.393 -51.538l7.669 -10.952l-53.12 -29.034l45.451 39.986zm13.509 -12.319l-12.796 18.274l-75.835 -66.717l88.631 48.443zm38.992 -38.379l11.806 -6.277l-34.15 -49.985l22.344 56.262zm17.63 -4.843l-19.698 10.473l-37.28 -93.874l56.977 83.4z" id="shape.primary" fill="#ee0e51" fill-rule="nonzero"></path><path d="M159.5 450c13.531 0 24.5 -10.969 24.5 -24.5c0 -13.531 -10.969 -24.5 -24.5 -24.5c-13.531 0 -24.5 10.969 -24.5 24.5c0 13.531 10.969 24.5 24.5 24.5zm0 5c-16.292 0 -29.5 -13.208 -29.5 -29.5c0 -16.292 13.208 -29.5 29.5 -29.5c16.292 0 29.5 13.208 29.5 29.5c0 16.292 -13.208 29.5 -29.5 29.5z" id="shape.primary" fill="#ee0e51" fill-rule="nonzero"></path><path d="M340.5 450c13.531 0 24.5 -10.969 24.5 -24.5c0 -13.531 -10.969 -24.5 -24.5 -24.5c-13.531 0 -24.5 10.969 -24.5 24.5c0 13.531 10.969 24.5 24.5 24.5zm0 5c-16.292 0 -29.5 -13.208 -29.5 -29.5c0 -16.292 13.208 -29.5 29.5 -29.5c16.292 0 29.5 13.208 29.5 29.5c0 16.292 -13.208 29.5 -29.5 29.5z" id="shape.primary" fill="#ee0e51" fill-rule="nonzero"></path><path d="M432.5 302c13.531 0 24.5 -10.969 24.5 -24.5c0 -13.531 -10.969 -24.5 -24.5 -24.5c-13.531 0 -24.5 10.969 -24.5 24.5c0 13.531 10.969 24.5 24.5 24.5zm0 5c-16.292 0 -29.5 -13.208 -29.5 -29.5c0 -16.292 13.208 -29.5 29.5 -29.5c16.292 0 29.5 13.208 29.5 29.5c0 16.292 -13.208 29.5 -29.5 29.5z" id="shape.primary" fill="#ee0e51" fill-rule="nonzero"></path><path d="M67.5 302c13.531 0 24.5 -10.969 24.5 -24.5c0 -13.531 -10.969 -24.5 -24.5 -24.5c-13.531 0 -24.5 10.969 -24.5 24.5c0 13.531 10.969 24.5 24.5 24.5zm0 5c-16.292 0 -29.5 -13.208 -29.5 -29.5c0 -16.292 13.208 -29.5 29.5 -29.5c16.292 0 29.5 13.208 29.5 29.5c0 16.292 -13.208 29.5 -29.5 29.5z" id="shape.primary" fill="#ee0e51" fill-rule="nonzero"></path><path d="M124.5 140c13.531 0 24.5 -10.969 24.5 -24.5c0 -13.531 -10.969 -24.5 -24.5 -24.5c-13.531 0 -24.5 10.969 -24.5 24.5c0 13.531 10.969 24.5 24.5 24.5zm0 5c-16.292 0 -29.5 -13.208 -29.5 -29.5c0 -16.292 13.208 -29.5 29.5 -29.5c16.292 0 29.5 13.208 29.5 29.5c0 16.292 -13.208 29.5 -29.5 29.5z" id="shape.primary" fill="#ee0e51" fill-rule="nonzero"></path><path d="M375.5 140c13.531 0 24.5 -10.969 24.5 -24.5c0 -13.531 -10.969 -24.5 -24.5 -24.5c-13.531 0 -24.5 10.969 -24.5 24.5c0 13.531 10.969 24.5 24.5 24.5zm0 5c-16.292 0 -29.5 -13.208 -29.5 -29.5c0 -16.292 13.208 -29.5 29.5 -29.5c16.292 0 29.5 13.208 29.5 29.5c0 16.292 -13.208 29.5 -29.5 29.5z" id="shape.primary" fill="#ee0e51" fill-rule="nonzero"></path><path d="M159.5 405c-11.322 0 -20.5 9.179 -20.5 20.5c0 11.32 9.178 20.5 20.5 20.5c11.32 0 20.5 -9.179 20.5 -20.5c0 -11.322 -9.18 -20.5 -20.5 -20.5zm12.655 22.955l-3.325 0.214c-0.186 0.627 -0.434 1.227 -0.74 1.791l2.198 2.503l-3.471 3.47l-2.502 -2.198c-0.564 0.306 -1.164 0.554 -1.791 0.74l-0.215 3.325l-4.909 0l-0.214 -3.325c-0.627 -0.186 -1.227 -0.434 -1.792 -0.74l-2.502 2.199l-3.47 -3.472l2.198 -2.502c-0.306 -0.564 -0.554 -1.164 -0.74 -1.791l-3.325 -0.215l0 -4.908l3.324 -0.215c0.187 -0.626 0.435 -1.227 0.74 -1.791l-2.197 -2.501l3.47 -3.472l2.502 2.198c0.565 -0.306 1.165 -0.554 1.792 -0.74l0.215 -3.325l4.907 0l0.215 3.325c0.627 0.186 1.227 0.434 1.792 0.74l2.502 -2.198l3.47 3.472l-2.197 2.501c0.306 0.565 0.554 1.165 0.74 1.791l3.325 0.215l0 4.909z" id="shape.primary" fill="#ee0e51" fill-rule="nonzero"></path><path d="M340.5 405c-11.322 0 -20.5 9.179 -20.5 20.5c0 11.32 9.178 20.5 20.5 20.5c11.32 0 20.5 -9.179 20.5 -20.5c0 -11.322 -9.18 -20.5 -20.5 -20.5zm12.655 22.955l-3.325 0.214c-0.186 0.627 -0.434 1.227 -0.74 1.791l2.198 2.503l-3.471 3.47l-2.502 -2.198c-0.564 0.306 -1.164 0.554 -1.791 0.74l-0.215 3.325l-4.909 0l-0.214 -3.325c-0.627 -0.186 -1.227 -0.434 -1.792 -0.74l-2.502 2.199l-3.47 -3.472l2.198 -2.502c-0.306 -0.564 -0.554 -1.164 -0.74 -1.791l-3.325 -0.215l0 -4.908l3.324 -0.215c0.187 -0.626 0.435 -1.227 0.74 -1.791l-2.197 -2.501l3.47 -3.472l2.502 2.198c0.565 -0.306 1.165 -0.554 1.792 -0.74l0.215 -3.325l4.907 0l0.215 3.325c0.627 0.186 1.227 0.434 1.792 0.74l2.502 -2.198l3.47 3.472l-2.197 2.501c0.306 0.565 0.554 1.165 0.74 1.791l3.325 0.215l0 4.909z" id="shape.primary" fill="#ee0e51" fill-rule="nonzero"></path><path d="M432.5 257c-11.322 0 -20.5 9.179 -20.5 20.5c0 11.32 9.178 20.5 20.5 20.5c11.32 0 20.5 -9.179 20.5 -20.5c0 -11.322 -9.18 -20.5 -20.5 -20.5zm12.655 22.955l-3.325 0.214c-0.186 0.627 -0.434 1.227 -0.74 1.791l2.198 2.503l-3.471 3.47l-2.502 -2.198c-0.564 0.306 -1.164 0.554 -1.791 0.74l-0.215 3.325l-4.909 0l-0.214 -3.325c-0.627 -0.186 -1.227 -0.434 -1.792 -0.74l-2.502 2.199l-3.47 -3.472l2.198 -2.502c-0.306 -0.564 -0.554 -1.164 -0.74 -1.791l-3.325 -0.215l0 -4.908l3.324 -0.215c0.187 -0.626 0.435 -1.227 0.74 -1.791l-2.197 -2.501l3.47 -3.472l2.502 2.198c0.565 -0.306 1.165 -0.554 1.792 -0.74l0.215 -3.325l4.907 0l0.215 3.325c0.627 0.186 1.227 0.434 1.792 0.74l2.502 -2.198l3.47 3.472l-2.197 2.501c0.306 0.565 0.554 1.165 0.74 1.791l3.325 0.215l0 4.909z" id="shape.primary" fill="#ee0e51" fill-rule="nonzero"></path><path d="M67.5 257c-11.322 0 -20.5 9.179 -20.5 20.5c0 11.32 9.178 20.5 20.5 20.5c11.32 0 20.5 -9.179 20.5 -20.5c0 -11.322 -9.18 -20.5 -20.5 -20.5zm12.655 22.955l-3.325 0.214c-0.186 0.627 -0.434 1.227 -0.74 1.791l2.198 2.503l-3.471 3.47l-2.502 -2.198c-0.564 0.306 -1.164 0.554 -1.791 0.74l-0.215 3.325l-4.909 0l-0.214 -3.325c-0.627 -0.186 -1.227 -0.434 -1.792 -0.74l-2.502 2.199l-3.47 -3.472l2.198 -2.502c-0.306 -0.564 -0.554 -1.164 -0.74 -1.791l-3.325 -0.215l0 -4.908l3.324 -0.215c0.187 -0.626 0.435 -1.227 0.74 -1.791l-2.197 -2.501l3.47 -3.472l2.502 2.198c0.565 -0.306 1.165 -0.554 1.792 -0.74l0.215 -3.325l4.907 0l0.215 3.325c0.627 0.186 1.227 0.434 1.792 0.74l2.502 -2.198l3.47 3.472l-2.197 2.501c0.306 0.565 0.554 1.165 0.74 1.791l3.325 0.215l0 4.909z" id="shape.primary" fill="#ee0e51" fill-rule="nonzero"></path><path d="M124.5 95c-11.322 0 -20.5 9.179 -20.5 20.5c0 11.32 9.178 20.5 20.5 20.5c11.32 0 20.5 -9.179 20.5 -20.5c0 -11.322 -9.18 -20.5 -20.5 -20.5zm12.655 22.955l-3.325 0.214c-0.186 0.627 -0.434 1.227 -0.74 1.791l2.198 2.503l-3.471 3.47l-2.502 -2.198c-0.564 0.306 -1.164 0.554 -1.791 0.74l-0.215 3.325l-4.909 0l-0.214 -3.325c-0.627 -0.186 -1.227 -0.434 -1.792 -0.74l-2.502 2.199l-3.47 -3.472l2.198 -2.502c-0.306 -0.564 -0.554 -1.164 -0.74 -1.791l-3.325 -0.215l0 -4.908l3.324 -0.215c0.187 -0.626 0.435 -1.227 0.74 -1.791l-2.197 -2.501l3.47 -3.472l2.502 2.198c0.565 -0.306 1.165 -0.554 1.792 -0.74l0.215 -3.325l4.907 0l0.215 3.325c0.627 0.186 1.227 0.434 1.792 0.74l2.502 -2.198l3.47 3.472l-2.197 2.501c0.306 0.565 0.554 1.165 0.74 1.791l3.325 0.215l0 4.909z" id="shape.primary" fill="#ee0e51" fill-rule="nonzero"></path><path d="M375.5 95c-11.322 0 -20.5 9.179 -20.5 20.5c0 11.32 9.178 20.5 20.5 20.5c11.32 0 20.5 -9.179 20.5 -20.5c0 -11.322 -9.18 -20.5 -20.5 -20.5zm12.655 22.955l-3.325 0.214c-0.186 0.627 -0.434 1.227 -0.74 1.791l2.198 2.503l-3.471 3.47l-2.502 -2.198c-0.564 0.306 -1.164 0.554 -1.791 0.74l-0.215 3.325l-4.909 0l-0.214 -3.325c-0.627 -0.186 -1.227 -0.434 -1.792 -0.74l-2.502 2.199l-3.47 -3.472l2.198 -2.502c-0.306 -0.564 -0.554 -1.164 -0.74 -1.791l-3.325 -0.215l0 -4.908l3.324 -0.215c0.187 -0.626 0.435 -1.227 0.74 -1.791l-2.197 -2.501l3.47 -3.472l2.502 2.198c0.565 -0.306 1.165 -0.554 1.792 -0.74l0.215 -3.325l4.907 0l0.215 3.325c0.627 0.186 1.227 0.434 1.792 0.74l2.502 -2.198l3.47 3.472l-2.197 2.501c0.306 0.565 0.554 1.165 0.74 1.791l3.325 0.215l0 4.909z" id="shape.primary" fill="#ee0e51" fill-rule="nonzero"></path><circle id="shape.primary" fill="#ee0e51" cx="250" cy="250" r="156"></circle><rect id="icon.secondary" x="230" y="270" width="40" height="40" display="none" fill="#e4dcef"></rect><svg xmlns="http://www.w3.org/2000/svg" xmlns:xlink="http://www.w3.org/1999/xlink" viewBox="0 0 50 50" version="1.1" fill="#e4dcef" id="svg_icon.secondary" x="230" y="270" width="40" height="40"><g id="surface1"><path style=" " d="M 3 3 C 1.355469 3 0 4.355469 0 6 L 0 47 L 50 47 L 50 6 C 50 4.355469 48.644531 3 47 3 Z M 3 5 L 47 5 C 47.566406 5 48 5.433594 48 6 L 48 9 L 2 9 L 2 6 C 2 5.433594 2.433594 5 3 5 Z M 2 11 L 48 11 L 48 45 L 2 45 Z M 28.90625 14.96875 C 28.863281 14.976563 28.820313 14.988281 28.78125 15 C 28.453125 15.074219 28.179688 15.308594 28.0625 15.625 L 19.0625 37.625 C 18.855469 38.144531 19.105469 38.730469 19.625 38.9375 C 20.144531 39.144531 20.730469 38.894531 20.9375 38.375 L 29.9375 16.375 C 30.085938 16.046875 30.046875 15.660156 29.832031 15.371094 C 29.621094 15.078125 29.265625 14.925781 28.90625 14.96875 Z M 15.9375 20.96875 C 15.90625 20.976563 15.875 20.988281 15.84375 21 C 15.722656 21.019531 15.605469 21.0625 15.5 21.125 L 8.5 25.125 C 8.183594 25.300781 7.984375 25.636719 7.984375 26 C 7.984375 26.363281 8.183594 26.699219 8.5 26.875 L 15.5 30.875 C 15.984375 31.152344 16.597656 30.984375 16.875 30.5 C 17.152344 30.015625 16.984375 29.402344 16.5 29.125 L 11.03125 26 L 16.5 22.875 C 16.96875 22.675781 17.214844 22.160156 17.070313 21.671875 C 16.925781 21.183594 16.4375 20.878906 15.9375 20.96875 Z M 33.8125 21 C 33.386719 21.066406 33.046875 21.398438 32.976563 21.824219 C 32.90625 22.25 33.117188 22.675781 33.5 22.875 L 38.96875 26 L 33.5 29.125 C 33.015625 29.402344 32.847656 30.015625 33.125 30.5 C 33.402344 30.984375 34.015625 31.152344 34.5 30.875 L 41.5 26.875 C 41.816406 26.699219 42.015625 26.363281 42.015625 26 C 42.015625 25.636719 41.816406 25.300781 41.5 25.125 L 34.5 21.125 C 34.292969 21.003906 34.050781 20.957031 33.8125 21 Z "></path></g></svg><g id="Group" transform="translate(120.000000, 214.000000)"><rect id="Rectangle-62" x="0" y="0" width="260" height="45"></rect><text id="headerText.secondary" font-family="Caesar Dressing" font-size="25.66402124530605" font-weight="400" line-spacing="40" fill="#e4dcef" data-text-alignment="C" font-style="normal" letter-spacing="NaN"><tspan x="-1.127960205078125" y="33.5">xml-class-transformer</tspan></text></g><path d="M200 290l25 0l0 3l-25 0l0 -3zm75 0l25 0l0 3l-25 0l0 -3z" id="shape.secondary" fill="#e4dcef"></path></g></svg>